<svg xmlns="http://www.w3.org/2000/svg" viewBox="0 0 480 160" role="img" aria-label="DryUI logo">
  <rect width="480" height="160" rx="28" fill="#0f1720" />
  <path d="M44 42h20l24 40 24-40h20L96 118H76z" fill="#32BCD4" />
  <circle cx="132" cy="112" r="10" fill="#f3fbff" />
  <g fill="#d8f8ff">
    <path d="M180 48h38c24 0 40 13 40 31s-16 33-40 33h-38zm20 16v32h16c13 0 21-6 21-17s-8-15-21-15z" />
    <path d="M276 48h20v35h3l25-35h24l-31 40 33 40h-25l-26-33h-3v33h-20z" />
    <path d="M356 48h20l16 50h3l16-50h20l-29 80h-17z" />
    <path d="M443 48h20v80h-20z" />
  </g>
</svg>
